<svg width="3057" height="488" viewBox="0 0 3057 488" fill="none" xmlns="http://www.w3.org/2000/svg">
<path d="M524.8 0.501007V0.5H214.013C178.917 0.5 149.454 26.9328 145.66 61.8221L141.712 98.1208L141.712 98.1211L131.103 196.244L125.156 251.319H234.733C235.641 251.319 236.391 251.043 236.927 250.583C237.46 250.126 237.811 249.464 237.885 248.631L237.885 248.621L243.556 196.136L243.556 196.136L253.883 101.166C253.883 101.164 253.883 101.162 253.883 101.161C254.08 98.9639 255.844 97.567 258.031 97.567H471.899C473.688 97.567 475.384 98.4426 476.583 99.701C477.779 100.957 478.535 102.654 478.347 104.352C478.347 104.352 478.347 104.353 478.347 104.353M524.8 0.501007L477.85 104.298L478.347 104.353M524.8 0.501007H525.3C566.324 0.501007 598.219 36.1954 593.623 76.961L591.249 98.011L591.249 98.0133L580.977 192.988C580.977 192.989 580.977 192.99 580.977 192.991C580.782 194.63 579.552 195.69 577.824 195.69H474.482C473.046 195.69 471.612 194.968 470.563 193.866C469.513 192.764 468.906 191.344 469.028 190.009M524.8 0.501007L469.028 190.009M478.347 104.353L469.029 190.005M478.347 104.353L469.029 190.005M469.029 190.005C469.028 190.007 469.028 190.008 469.028 190.009M469.029 190.005L469.028 190.009" fill="white" stroke="white"/>
<path d="M344.016 347.364L344.017 347.358L354.008 254.967C354.008 254.966 354.008 254.965 354.008 254.964C354.202 253.385 355.429 252.32 357.162 252.32H460.841C462.307 252.32 463.755 253.045 464.802 254.144C465.851 255.245 466.443 256.663 466.295 257.996L466.295 257.998L448.62 423.193C447.078 437.596 434.923 448.519 420.437 448.519H142.677C122.032 448.519 105.933 430.635 108.096 410.103L114.329 350.947H339.872C342.08 350.947 343.76 349.476 344.016 347.364Z" fill="white" stroke="white"/>
<path d="M0.521836 344.248L0.521847 344.248L10.2098 254.981L10.2099 254.981C10.3822 253.386 11.6094 252.307 13.3598 252.307H124.023L113.429 349.931H5.96275C4.51052 349.931 3.06783 349.209 2.02089 348.109C0.972423 347.008 0.376131 345.588 0.521836 344.248Z" fill="white" stroke="white"/>
<path d="M569.9 240.55C599.067 240.55 619.95 245.567 632.55 255.6C645.383 265.4 651.8 280.1 651.8 299.7C652.033 315.567 648.067 327.467 639.9 335.4C631.733 343.1 617.617 346.95 597.55 346.95H500.95V317.9H583.2C591.133 317.9 596.15 316.267 598.25 313C600.583 309.5 601.75 304.717 601.75 298.65C601.517 290.483 599.067 284.883 594.4 281.85C589.967 278.583 582.383 276.95 571.65 276.95C562.083 276.95 554.617 278.233 549.25 280.8C543.883 283.367 540.15 288.267 538.05 295.5C535.95 302.733 534.9 313.233 534.9 327C534.9 341.467 536.183 352.667 538.75 360.6C541.317 368.3 545.633 373.667 551.7 376.7C558 379.733 566.633 381.25 577.6 381.25C585.533 381.25 595.333 381.017 607 380.55C618.9 379.85 630.8 378.8 642.7 377.4L647.6 409.25C640.833 412.517 633.133 415.083 624.5 416.95C615.867 418.817 607 420.1 597.9 420.8C588.8 421.733 580.05 422.2 571.65 422.2C549.717 422.2 531.983 419.05 518.45 412.75C505.15 406.217 495.467 396.3 489.4 383C483.567 369.7 480.65 352.667 480.65 331.9C480.65 309.267 483.683 291.3 489.75 278C495.817 264.7 505.383 255.133 518.45 249.3C531.517 243.467 548.667 240.55 569.9 240.55ZM737.709 173L737.359 362.7C737.359 368.533 739.109 372.967 742.609 376C746.109 378.8 751.242 380.2 758.009 380.2H772.009L777.959 415.2C775.159 416.6 771.192 417.767 766.059 418.7C760.925 419.867 755.675 420.683 750.309 421.15C744.942 421.85 740.392 422.2 736.659 422.2C721.025 422.2 708.659 418.117 699.559 409.95C690.459 401.783 685.909 390.35 685.909 375.65V173H737.709ZM853.252 245.1V418H801.802V245.1H853.252ZM838.902 168.8C849.169 168.8 854.302 174.05 854.302 184.55V203.1C854.302 213.6 849.169 218.85 838.902 218.85H816.502C806.236 218.85 801.102 213.6 801.102 203.1V184.55C801.102 174.05 806.236 168.8 816.502 168.8H838.902ZM988.481 240.55C1002.95 240.55 1015.2 242.533 1025.23 246.5C1035.26 250.233 1042.85 256.767 1047.98 266.1C1053.35 275.2 1056.03 287.8 1056.03 303.9V418H1014.73L1007.38 380.55L1003.88 375.3V303.55C1003.88 295.383 1001.9 289.433 997.931 285.7C994.198 281.967 986.964 280.1 976.231 280.1C967.364 280.1 956.281 280.45 942.981 281.15C929.681 281.617 916.031 282.317 902.031 283.25L897.131 248.95C905.531 247.317 915.214 245.917 926.181 244.75C937.148 243.583 948.114 242.65 959.081 241.95C970.048 241.017 979.848 240.55 988.481 240.55ZM1034.68 311.6L1034.33 340.65L957.331 341C951.031 341 946.481 342.517 943.681 345.55C941.114 348.583 939.831 352.667 939.831 357.8V366.2C939.831 372.033 941.464 376.583 944.731 379.85C947.998 382.883 953.248 384.4 960.481 384.4C966.548 384.4 973.081 383.117 980.081 380.55C987.314 377.983 994.431 374.367 1001.43 369.7C1008.43 365.033 1014.61 359.55 1019.98 353.25V375.65C1017.88 379.15 1014.73 383.583 1010.53 388.95C1006.56 394.083 1001.43 399.217 995.131 404.35C988.831 409.25 981.481 413.45 973.081 416.95C964.681 420.45 955.114 422.2 944.381 422.2C933.881 422.2 924.431 420.333 916.031 416.6C907.631 412.867 900.981 407.383 896.081 400.15C891.181 392.917 888.731 383.933 888.731 373.2V355.35C888.731 341.583 893.398 330.85 902.731 323.15C912.064 315.45 924.898 311.6 941.231 311.6H1034.68ZM1436.68 245.1L1393.98 404.35C1393.05 408.55 1390.95 411.933 1387.68 414.5C1384.42 416.833 1380.57 418 1376.13 418H1336.93C1332.27 418 1328.18 416.6 1324.68 413.8C1321.18 410.767 1319.08 406.917 1318.38 402.25L1299.48 304.95C1298.78 300.05 1298.2 295.267 1297.73 290.6C1297.27 285.7 1296.57 280.8 1295.63 275.9H1291.43C1290.73 280.8 1290.03 285.7 1289.33 290.6C1288.63 295.267 1287.93 300.05 1287.23 304.95L1268.33 402.25C1267.63 406.917 1265.53 410.767 1262.03 413.8C1258.53 416.6 1254.45 418 1249.78 418H1210.93C1206.5 418 1202.65 416.833 1199.38 414.5C1196.12 411.933 1194.02 408.55 1193.08 404.35L1150.38 245.1H1202.53L1226.33 357.1C1227.27 361.767 1228.08 366.55 1228.78 371.45C1229.48 376.117 1230.07 380.783 1230.53 385.45H1235.08C1235.78 380.783 1236.48 376.117 1237.18 371.45C1238.12 366.55 1238.93 361.767 1239.63 357.1L1258.53 260.85C1259.23 256.183 1261.22 252.45 1264.48 249.65C1267.75 246.617 1271.83 245.1 1276.73 245.1H1310.33C1315 245.1 1318.97 246.617 1322.23 249.65C1325.73 252.45 1327.83 256.3 1328.53 261.2L1347.08 357.1C1347.78 361.767 1348.6 366.433 1349.53 371.1C1350.47 375.767 1351.28 380.55 1351.98 385.45H1356.18C1357.12 380.55 1357.82 375.883 1358.28 371.45C1358.98 366.783 1359.8 362 1360.73 357.1L1384.53 245.1H1436.68ZM1583.55 240.55C1616.21 240.55 1632.55 256.533 1632.55 288.5V418H1580.4V304.6C1580.4 296.9 1579 291.65 1576.2 288.85C1573.63 285.817 1568.96 284.3 1562.2 284.3C1554.73 284.3 1547.03 285.7 1539.1 288.5C1531.16 291.3 1521.36 295.85 1509.7 302.15L1505.15 275.2C1517.98 264 1531.05 255.483 1544.35 249.65C1557.65 243.583 1570.71 240.55 1583.55 240.55ZM1514.95 173L1515.3 232.85C1515.3 241.95 1514.71 250.583 1513.55 258.75C1512.61 266.917 1511.45 273.8 1510.05 279.4L1514.95 283.95V418H1463.15V173H1514.95ZM1726.2 245.1V418H1674.75V245.1H1726.2ZM1711.85 168.8C1722.12 168.8 1727.25 174.05 1727.25 184.55V203.1C1727.25 213.6 1722.12 218.85 1711.85 218.85H1689.45C1679.18 218.85 1674.05 213.6 1674.05 203.1V184.55C1674.05 174.05 1679.18 168.8 1689.45 168.8H1711.85ZM1837.63 197.15V362.7C1837.63 369 1839.03 373.55 1841.83 376.35C1844.86 378.917 1849.76 380.2 1856.53 380.2H1878.93L1884.53 415.2C1880.33 416.6 1875.2 417.767 1869.13 418.7C1863.06 419.867 1857 420.683 1850.93 421.15C1844.86 421.85 1839.73 422.2 1835.53 422.2C1819.9 422.2 1807.65 418 1798.78 409.6C1790.15 401.2 1785.83 389.417 1785.83 374.25L1785.48 197.15H1837.63ZM1885.93 245.1V279.05H1755.38V246.85L1788.98 245.1H1885.93ZM1995.53 240.55C2024.7 240.55 2045.58 245.567 2058.18 255.6C2071.02 265.4 2077.43 280.1 2077.43 299.7C2077.67 315.567 2073.7 327.467 2065.53 335.4C2057.37 343.1 2043.25 346.95 2023.18 346.95H1926.58V317.9H2008.83C2016.77 317.9 2021.78 316.267 2023.88 313C2026.22 309.5 2027.38 304.717 2027.38 298.65C2027.15 290.483 2024.7 284.883 2020.03 281.85C2015.6 278.583 2008.02 276.95 1997.28 276.95C1987.72 276.95 1980.25 278.233 1974.88 280.8C1969.52 283.367 1965.78 288.267 1963.68 295.5C1961.58 302.733 1960.53 313.233 1960.53 327C1960.53 341.467 1961.82 352.667 1964.38 360.6C1966.95 368.3 1971.27 373.667 1977.33 376.7C1983.63 379.733 1992.27 381.25 2003.23 381.25C2011.17 381.25 2020.97 381.017 2032.63 380.55C2044.53 379.85 2056.43 378.8 2068.33 377.4L2073.23 409.25C2066.47 412.517 2058.77 415.083 2050.13 416.95C2041.5 418.817 2032.63 420.1 2023.53 420.8C2014.43 421.733 2005.68 422.2 1997.28 422.2C1975.35 422.2 1957.62 419.05 1944.08 412.75C1930.78 406.217 1921.1 396.3 1915.03 383C1909.2 369.7 1906.28 352.667 1906.28 331.9C1906.28 309.267 1909.32 291.3 1915.38 278C1921.45 264.7 1931.02 255.133 1944.08 249.3C1957.15 243.467 1974.3 240.55 1995.53 240.55ZM2224.94 240.9C2246.64 240.9 2262.16 248.833 2271.49 264.7C2280.83 280.567 2285.49 303.317 2285.49 332.95C2285.49 356.05 2283.04 374.133 2278.14 387.2C2273.48 400.267 2266.24 409.483 2256.44 414.85C2246.88 419.983 2234.86 422.55 2220.39 422.55C2208.03 422.55 2196.24 420.8 2185.04 417.3C2173.84 413.8 2163.93 407.967 2155.29 399.8L2158.79 376.7C2166.49 379.033 2173.49 381.133 2179.79 383C2186.33 384.633 2193.68 385.45 2201.84 385.45C2209.31 385.45 2215.26 384.167 2219.69 381.6C2224.13 379.033 2227.28 374.017 2229.14 366.55C2231.24 358.85 2232.29 347.767 2232.29 333.3C2232.29 319.067 2231.36 308.217 2229.49 300.75C2227.63 293.05 2224.59 287.8 2220.39 285C2216.19 281.967 2210.71 280.45 2203.94 280.45C2196.48 280.45 2189.59 281.967 2183.29 285C2176.99 287.8 2169.88 291.883 2161.94 297.25L2155.29 273.45C2159.96 267.15 2165.91 261.55 2173.14 256.65C2180.61 251.75 2188.78 247.9 2197.64 245.1C2206.51 242.3 2215.61 240.9 2224.94 240.9ZM2153.19 245.1L2158.09 276.6L2162.99 281.85V394.2L2161.24 398.4C2161.94 405.4 2162.41 412.633 2162.64 420.1C2163.11 427.8 2163.23 435.383 2162.99 442.85V484.5H2111.19V245.1H2153.19ZM2412.41 240.55C2426.87 240.55 2439.12 242.533 2449.16 246.5C2459.19 250.233 2466.77 256.767 2471.91 266.1C2477.27 275.2 2479.96 287.8 2479.96 303.9V418H2438.66L2431.31 380.55L2427.81 375.3V303.55C2427.81 295.383 2425.82 289.433 2421.86 285.7C2418.12 281.967 2410.89 280.1 2400.16 280.1C2391.29 280.1 2380.21 280.45 2366.91 281.15C2353.61 281.617 2339.96 282.317 2325.96 283.25L2321.06 248.95C2329.46 247.317 2339.14 245.917 2350.11 244.75C2361.07 243.583 2372.04 242.65 2383.01 241.95C2393.97 241.017 2403.77 240.55 2412.41 240.55ZM2458.61 311.6L2458.26 340.65L2381.26 341C2374.96 341 2370.41 342.517 2367.61 345.55C2365.04 348.583 2363.76 352.667 2363.76 357.8V366.2C2363.76 372.033 2365.39 376.583 2368.66 379.85C2371.92 382.883 2377.17 384.4 2384.41 384.4C2390.47 384.4 2397.01 383.117 2404.01 380.55C2411.24 377.983 2418.36 374.367 2425.36 369.7C2432.36 365.033 2438.54 359.55 2443.91 353.25V375.65C2441.81 379.15 2438.66 383.583 2434.46 388.95C2430.49 394.083 2425.36 399.217 2419.06 404.35C2412.76 409.25 2405.41 413.45 2397.01 416.95C2388.61 420.45 2379.04 422.2 2368.31 422.2C2357.81 422.2 2348.36 420.333 2339.96 416.6C2331.56 412.867 2324.91 407.383 2320.01 400.15C2315.11 392.917 2312.66 383.933 2312.66 373.2V355.35C2312.66 341.583 2317.32 330.85 2326.66 323.15C2335.99 315.45 2348.82 311.6 2365.16 311.6H2458.61ZM2634.42 240.9C2656.12 240.9 2671.63 248.833 2680.97 264.7C2690.3 280.567 2694.97 303.317 2694.97 332.95C2694.97 356.05 2692.52 374.133 2687.62 387.2C2682.95 400.267 2675.72 409.483 2665.92 414.85C2656.35 419.983 2644.33 422.55 2629.87 422.55C2617.5 422.55 2605.72 420.8 2594.52 417.3C2583.32 413.8 2573.4 407.967 2564.77 399.8L2568.27 376.7C2575.97 379.033 2582.97 381.133 2589.27 383C2595.8 384.633 2603.15 385.45 2611.32 385.45C2618.78 385.45 2624.73 384.167 2629.17 381.6C2633.6 379.033 2636.75 374.017 2638.62 366.55C2640.72 358.85 2641.77 347.767 2641.77 333.3C2641.77 319.067 2640.83 308.217 2638.97 300.75C2637.1 293.05 2634.07 287.8 2629.87 285C2625.67 281.967 2620.18 280.45 2613.42 280.45C2605.95 280.45 2599.07 281.967 2592.77 285C2586.47 287.8 2579.35 291.883 2571.42 297.25L2564.77 273.45C2569.43 267.15 2575.38 261.55 2582.62 256.65C2590.08 251.75 2598.25 247.9 2607.12 245.1C2615.98 242.3 2625.08 240.9 2634.42 240.9ZM2562.67 245.1L2567.57 276.6L2572.47 281.85V394.2L2570.72 398.4C2571.42 405.4 2571.88 412.633 2572.12 420.1C2572.58 427.8 2572.7 435.383 2572.47 442.85V484.5H2520.67V245.1H2562.67ZM2812.43 240.55C2841.6 240.55 2862.48 245.567 2875.08 255.6C2887.91 265.4 2894.33 280.1 2894.33 299.7C2894.56 315.567 2890.6 327.467 2882.43 335.4C2874.26 343.1 2860.15 346.95 2840.08 346.95H2743.48V317.9H2825.73C2833.66 317.9 2838.68 316.267 2840.78 313C2843.11 309.5 2844.28 304.717 2844.28 298.65C2844.05 290.483 2841.6 284.883 2836.93 281.85C2832.5 278.583 2824.91 276.95 2814.18 276.95C2804.61 276.95 2797.15 278.233 2791.78 280.8C2786.41 283.367 2782.68 288.267 2780.58 295.5C2778.48 302.733 2777.43 313.233 2777.43 327C2777.43 341.467 2778.71 352.667 2781.28 360.6C2783.85 368.3 2788.16 373.667 2794.23 376.7C2800.53 379.733 2809.16 381.25 2820.13 381.25C2828.06 381.25 2837.86 381.017 2849.53 380.55C2861.43 379.85 2873.33 378.8 2885.23 377.4L2890.13 409.25C2883.36 412.517 2875.66 415.083 2867.03 416.95C2858.4 418.817 2849.53 420.1 2840.43 420.8C2831.33 421.733 2822.58 422.2 2814.18 422.2C2792.25 422.2 2774.51 419.05 2760.98 412.75C2747.68 406.217 2738 396.3 2731.93 383C2726.1 369.7 2723.18 352.667 2723.18 331.9C2723.18 309.267 2726.21 291.3 2732.28 278C2738.35 264.7 2747.91 255.133 2760.98 249.3C2774.05 243.467 2791.2 240.55 2812.43 240.55ZM2968.69 245.1L2974.99 279.4L2979.89 283.95V418H2928.09V245.1H2968.69ZM3053.04 240.55L3048.14 288.5H3033.79C3025.62 288.5 3017.1 289.667 3008.24 292C2999.37 294.333 2988.17 297.833 2974.64 302.5L2971.14 273.45C2983.27 262.717 2995.52 254.55 3007.89 248.95C3020.25 243.35 3032.27 240.55 3043.94 240.55H3053.04Z" fill="white" fill-opacity="0.866667"/>
</svg>
